<svg width="82" height="82" viewBox="0 0 82 82" fill="none" xmlns="http://www.w3.org/2000/svg">
<circle cx="41" cy="41" r="41" fill="black"/>
<path d="M38.5 58C38.5 59.3807 39.6193 60.5 41 60.5C42.3807 60.5 43.5 59.3807 43.5 58H38.5ZM42.7678 21.2322C41.7915 20.2559 40.2085 20.2559 39.2322 21.2322L23.3223 37.1421C22.346 38.1184 22.346 39.7014 23.3223 40.6777C24.2986 41.654 25.8816 41.654 26.8579 40.6777L41 26.5355L55.1421 40.6777C56.1184 41.654 57.7014 41.654 58.6777 40.6777C59.654 39.7014 59.654 38.1184 58.6777 37.1421L42.7678 21.2322ZM41 58H43.5V23H41H38.5V58H41Z" fill="white"/>
</svg>
